<svg id="svg" version="1.1" xmlns="http://www.w3.org/2000/svg" xmlns:xlink="http://www.w3.org/1999/xlink" width="400" height="346.9716221939856" viewBox="0, 0, 400,346.9716221939856">
  <g id="svgg"><path id="path0" d="M215.992 4.649 C 215.905 4.736,209.594 5.620,202.033 6.604 C 199.144 6.980,196.133 7.396,195.341 7.530 C 189.080 8.584,185.508 9.225,183.440 9.663 C 176.141 11.213,166.958 14.134,161.679 16.586 C 158.326 18.143,155.911 18.389,154.223 17.346 C 152.098 16.032,151.698 12.329,153.426 9.973 C 154.167 8.964,154.157 8.688,153.367 8.357 C 151.613 7.624,146.735 9.187,144.703 11.135 L 143.956 11.850 144.054 13.337 C 144.183 15.292,144.610 17.324,145.120 18.414 C 145.787 19.838,145.574 21.017,144.362 22.606 C 144.002 23.078,143.592 23.693,143.450 23.973 C 141.670 27.478,138.972 25.392,137.806 19.608 C 137.317 17.184,136.999 16.531,135.616 15.114 C 134.309 13.774,134.153 13.774,131.554 15.095 C 126.477 17.675,126.397 18.140,129.802 25.267 C 131.350 28.508,131.490 29.476,130.647 31.126 C 128.264 35.794,123.307 33.939,122.643 28.132 C 122.245 24.645,121.241 24.004,118.452 25.452 C 117.831 25.775,116.523 26.458,115.544 26.970 C 114.566 27.483,113.651 27.939,113.511 27.985 C 112.736 28.239,113.569 31.454,115.719 36.498 C 117.003 39.512,117.125 40.195,116.660 41.743 C 116.238 43.143,115.005 44.386,114.035 44.387 C 113.019 44.389,107.854 39.293,106.947 37.394 C 105.915 35.234,104.392 35.256,102.661 37.456 C 102.339 37.865,101.450 38.906,100.686 39.768 C 98.474 42.264,98.580 43.637,101.213 46.574 C 101.830 47.262,102.381 48.024,102.437 48.267 C 102.493 48.509,102.866 49.280,103.267 49.979 C 105.003 53.012,104.737 56.367,102.812 55.709 C 101.314 55.197,99.723 53.769,98.267 51.630 C 97.150 49.988,94.353 47.268,93.783 47.268 C 93.002 47.268,90.336 49.768,89.619 51.172 C 88.851 52.679,89.049 55.031,90.044 56.213 C 90.258 56.468,90.651 57.031,90.918 57.466 C 91.184 57.900,92.355 59.411,93.520 60.823 C 96.984 65.023,97.105 65.549,95.101 67.710 C 93.297 69.655,89.889 68.098,83.355 62.342 C 78.663 58.209,77.510 58.394,77.510 63.278 C 77.510 67.495,78.079 68.583,82.818 73.429 C 86.169 76.855,86.852 77.801,87.024 79.248 C 87.143 80.254,86.614 81.623,85.860 82.257 C 83.929 83.882,78.091 80.770,75.441 76.702 C 73.814 74.205,73.450 74.269,72.096 77.287 C 70.425 81.012,70.307 83.007,71.641 84.963 C 72.639 86.425,78.115 90.978,78.875 90.978 C 81.276 90.978,79.917 96.017,77.320 96.744 C 75.911 97.139,71.868 95.643,71.076 94.434 C 70.462 93.497,68.020 92.187,67.453 92.490 C 66.764 92.859,65.592 100.368,66.169 100.720 C 67.516 101.543,68.919 102.567,70.055 103.558 C 70.801 104.209,71.944 105.116,72.596 105.575 C 75.069 107.314,75.865 109.732,74.667 111.864 C 73.498 113.945,69.071 113.544,65.904 111.071 C 63.559 109.240,63.197 109.629,63.074 114.104 C 62.980 117.509,62.952 117.453,65.496 118.837 C 67.500 119.927,70.942 122.177,71.283 122.619 C 71.853 123.359,71.366 126.650,70.576 127.392 C 69.531 128.374,66.872 127.481,64.709 125.421 C 62.680 123.490,60.994 123.477,62.023 125.399 C 62.125 125.589,62.275 126.993,62.357 128.518 C 62.637 133.704,62.855 134.177,65.613 135.559 C 70.668 138.093,71.915 139.561,70.874 141.756 C 69.995 143.607,67.732 143.956,65.565 142.576 C 63.533 141.281,62.979 142.393,63.358 147.013 C 63.706 151.259,64.902 152.706,68.361 153.067 C 70.500 153.290,72.954 155.636,72.814 157.325 C 72.638 159.437,71.330 160.186,67.817 160.186 C 64.505 160.186,64.497 160.199,64.868 164.916 C 65.153 168.529,65.343 168.762,68.327 169.180 C 72.487 169.762,73.985 170.910,72.595 172.449 C 71.607 173.542,70.501 173.913,68.936 173.673 C 66.482 173.297,66.191 173.893,67.538 176.529 C 68.755 178.911,68.902 178.999,71.852 179.136 C 74.680 179.266,75.071 179.334,75.546 179.776 C 77.278 181.390,74.689 183.820,71.239 183.820 C 69.110 183.820,68.563 185.373,69.610 188.443 C 70.368 190.664,70.931 190.936,74.776 190.936 C 77.149 190.936,78.675 191.135,79.585 191.563 C 81.260 192.351,78.985 195.277,75.985 196.194 C 74.198 196.739,74.055 196.817,73.932 197.309 C 73.781 197.909,74.078 198.715,75.000 200.214 C 76.592 202.801,76.909 202.939,79.607 202.217 C 85.240 200.709,88.508 202.886,85.069 205.854 C 83.060 207.588,81.442 207.941,80.455 206.861 C 79.673 206.006,78.611 205.863,78.611 206.613 C 78.611 207.538,80.146 209.895,81.947 211.735 C 83.828 213.657,84.639 213.861,86.540 212.888 C 88.216 212.030,90.003 211.659,91.425 211.872 C 94.471 212.328,92.291 217.219,88.522 218.385 C 86.807 218.915,86.831 219.491,88.649 221.411 C 89.418 222.223,90.327 223.234,90.669 223.659 C 91.932 225.224,93.264 225.369,95.299 224.161 C 97.801 222.676,101.233 221.956,102.027 222.750 C 103.484 224.203,100.965 228.492,98.179 229.302 C 97.359 229.540,96.400 230.315,96.400 230.739 C 96.400 230.972,99.998 233.866,100.782 234.263 C 101.857 234.807,102.277 234.754,104.566 233.785 C 108.344 232.185,110.024 231.952,111.506 232.824 C 114.746 234.728,112.963 239.157,108.583 240.084 C 105.827 240.668,106.088 241.858,109.327 243.478 C 110.091 243.861,111.213 244.540,111.820 244.988 C 113.625 246.319,113.971 246.276,116.076 244.464 C 120.468 240.684,124.423 241.604,123.089 246.096 C 122.743 247.261,122.159 247.983,120.834 248.885 C 118.954 250.165,119.156 250.466,122.716 251.696 C 123.664 252.024,124.918 252.553,125.504 252.872 C 127.201 253.797,128.170 253.652,128.667 252.398 C 129.921 249.235,136.722 249.615,137.871 252.912 C 138.305 254.156,135.675 257.017,133.304 257.881 C 131.537 258.526,131.862 258.956,135.522 260.809 C 139.839 262.996,140.477 263.100,141.899 261.856 C 143.077 260.826,144.980 259.626,146.104 259.205 C 146.629 259.009,147.452 258.512,147.934 258.101 C 150.257 256.117,151.701 257.669,150.858 261.243 C 150.442 263.011,149.965 263.652,148.320 264.657 C 145.591 266.325,145.935 266.732,150.657 267.425 C 154.541 267.996,154.642 267.970,157.025 265.837 C 160.438 262.780,162.531 261.499,164.111 261.499 C 167.154 261.499,167.432 266.480,164.587 270.026 C 163.303 271.625,163.904 272.344,166.516 272.338 C 169.799 272.329,170.592 271.939,173.062 269.119 C 174.831 267.099,178.062 264.973,179.363 264.973 C 180.244 264.972,182.973 267.692,182.973 268.569 C 182.973 269.545,181.371 272.620,180.272 273.752 C 179.498 274.550,179.406 275.026,179.966 275.338 C 180.545 275.660,186.672 275.763,186.769 275.452 C 186.809 275.326,186.885 275.023,186.938 274.780 C 187.302 273.104,191.585 268.669,194.070 267.394 L 195.765 266.525 196.442 266.869 C 199.019 268.177,199.515 271.254,197.611 274.121 C 195.680 277.030,196.536 277.634,200.615 276.242 C 204.250 275.000,204.056 275.142,205.539 272.652 C 207.302 269.693,209.311 268.105,211.545 267.904 C 215.111 267.584,217.009 270.694,214.799 273.238 C 213.534 274.695,214.534 275.798,216.312 274.907 C 216.752 274.686,217.416 274.410,217.789 274.293 C 220.033 273.587,222.600 271.595,222.942 270.294 C 223.042 269.913,223.553 268.922,224.077 268.091 C 224.601 267.261,225.116 266.443,225.221 266.273 C 225.398 265.989,225.669 265.969,228.717 266.022 C 233.010 266.095,233.594 266.359,233.003 267.956 C 232.525 269.246,232.274 270.114,232.274 270.483 C 232.274 270.688,232.122 271.050,231.936 271.287 C 231.045 272.419,231.745 273.427,233.217 273.132 C 236.274 272.518,238.951 269.774,239.235 266.965 C 239.620 263.138,243.896 259.221,246.320 260.474 C 247.815 261.248,248.370 262.656,247.970 264.669 C 247.299 268.050,248.124 268.078,252.435 264.823 C 255.634 262.408,255.886 261.983,255.708 259.297 C 255.362 254.067,259.624 249.580,261.990 252.682 C 263.438 254.580,263.775 256.503,262.885 257.792 C 261.966 259.124,261.964 259.644,262.878 259.495 C 263.609 259.377,264.301 258.936,266.483 257.201 C 267.377 256.490,268.582 255.565,269.162 255.146 L 270.215 254.384 270.227 252.520 C 270.273 245.581,270.990 243.669,273.487 243.836 C 275.692 243.984,276.863 245.534,277.003 248.496 C 277.106 250.657,277.241 250.911,278.292 250.911 C 278.910 250.911,279.543 250.275,279.543 249.655 C 279.543 249.141,279.904 248.654,281.501 247.014 L 282.904 245.574 283.089 242.694 C 283.441 237.212,284.438 234.691,286.575 233.874 C 288.680 233.070,290.077 234.260,289.784 236.606 C 289.443 239.337,290.645 239.326,292.742 236.580 C 294.953 233.684,295.088 233.208,294.288 231.125 C 292.888 227.483,293.183 224.068,295.063 222.165 C 296.944 220.259,298.324 220.631,300.558 223.644 C 301.648 225.114,301.999 225.159,302.455 223.888 C 302.622 223.422,302.873 222.730,303.013 222.350 C 303.153 221.969,303.609 221.258,304.027 220.769 C 304.967 219.667,304.972 219.506,304.161 216.623 C 303.098 212.846,303.260 210.301,304.661 208.782 C 305.563 207.803,305.654 207.827,307.373 209.488 C 309.514 211.555,310.107 211.604,310.487 209.743 C 310.608 209.150,310.984 208.088,311.322 207.382 C 312.462 205.005,312.348 204.023,310.639 201.527 C 308.766 198.791,308.387 195.654,309.710 193.829 C 310.638 192.548,311.294 192.901,314.798 196.567 C 316.894 198.759,317.064 198.568,318.181 192.771 L 318.705 190.049 318.154 188.925 C 317.619 187.835,316.336 186.424,314.041 184.400 C 312.623 183.151,313.187 181.239,315.408 179.768 C 316.775 178.862,317.173 178.992,319.386 181.059 C 321.069 182.630,321.309 182.195,321.743 176.792 L 321.947 174.253 320.270 172.661 C 319.348 171.786,318.060 170.616,317.408 170.060 C 315.941 168.810,315.631 168.350,315.630 167.421 C 315.627 165.392,317.821 163.685,319.367 164.512 C 319.547 164.608,320.132 164.767,320.669 164.864 C 321.205 164.962,322.236 165.307,322.961 165.633 C 324.545 166.344,324.844 166.327,324.912 165.522 C 324.940 165.196,325.111 163.995,325.293 162.851 C 325.906 159.009,325.756 158.681,323.168 158.176 C 321.858 157.921,318.757 156.842,318.013 156.382 C 317.738 156.212,317.523 154.915,317.506 153.325 C 317.485 151.431,318.137 150.743,320.247 150.429 C 322.377 150.112,323.056 150.324,325.184 151.968 C 325.547 152.248,325.911 152.478,325.992 152.478 C 326.073 152.478,326.119 150.629,326.094 148.369 L 326.048 144.261 324.185 144.261 C 322.507 144.261,322.236 144.217,321.474 143.820 C 321.008 143.578,320.078 143.172,319.407 142.919 C 313.660 140.751,315.457 136.328,321.788 137.058 C 325.005 137.428,325.294 136.716,323.570 132.663 C 322.755 130.746,322.481 130.416,321.329 129.973 C 320.850 129.789,319.657 129.330,318.679 128.954 C 311.381 126.149,311.299 126.091,312.783 124.836 C 315.663 122.400,317.557 121.693,319.541 122.315 C 321.788 123.019,322.419 122.341,321.577 120.125 C 320.506 117.307,319.309 116.482,316.053 116.317 C 312.849 116.155,310.208 115.566,310.208 115.014 C 310.208 114.931,309.796 114.416,309.294 113.870 C 306.900 111.266,309.077 109.022,313.995 109.022 L 316.342 109.022 316.229 107.872 C 315.757 103.089,314.562 102.129,309.699 102.625 C 305.370 103.066,302.944 103.045,302.461 102.561 C 301.090 101.190,303.271 96.702,306.053 95.169 C 307.190 94.542,307.695 93.874,307.395 93.394 C 306.924 92.641,305.602 93.126,303.079 94.979 C 301.545 96.105,301.070 96.250,300.116 95.887 C 299.511 95.657,299.181 95.783,298.772 96.400 C 298.104 97.405,297.582 97.355,296.401 96.174 C 295.920 95.693,295.284 95.121,294.989 94.905 C 294.654 94.659,294.452 94.363,294.452 94.119 C 294.452 93.111,293.076 90.930,291.402 89.284 C 290.502 88.399,289.493 87.294,289.159 86.828 C 288.826 86.362,288.320 85.809,288.035 85.599 C 287.750 85.388,287.214 84.771,286.845 84.227 C 285.161 81.747,278.823 76.589,271.523 71.757 C 269.924 70.698,267.967 69.360,267.175 68.783 C 266.383 68.206,265.354 67.563,264.888 67.354 C 264.422 67.145,263.440 66.580,262.706 66.100 C 261.972 65.620,261.200 65.227,260.990 65.227 C 259.353 65.227,260.223 63.397,262.912 61.183 C 264.948 59.507,264.656 57.951,262.306 57.944 C 261.818 57.943,261.017 57.789,260.527 57.603 C 258.637 56.884,255.451 57.868,252.362 60.122 C 250.475 61.500,246.793 61.361,246.229 59.891 C 245.946 59.155,249.158 55.745,251.328 54.477 C 252.665 53.697,252.957 53.248,252.542 52.614 C 252.132 51.989,251.601 51.930,249.285 52.252 C 244.286 52.947,242.893 53.445,240.448 55.410 C 239.540 56.141,238.201 57.099,237.472 57.540 L 236.147 58.341 233.067 58.055 C 229.328 57.708,228.030 57.702,225.487 58.019 C 223.777 58.233,223.378 58.232,222.352 58.018 C 219.398 57.400,214.499 58.032,209.305 59.701 C 208.287 60.028,206.616 60.458,205.591 60.656 C 203.257 61.107,201.679 61.560,200.209 62.201 C 199.359 62.571,198.637 62.738,197.414 62.845 C 195.543 63.010,195.038 63.187,191.640 64.868 C 190.303 65.529,188.924 66.155,188.575 66.260 C 188.225 66.365,187.299 66.913,186.515 67.479 C 182.209 70.591,181.006 71.429,177.213 73.956 C 169.190 79.303,163.355 84.935,156.834 93.627 C 153.304 98.333,151.806 100.715,149.262 105.670 C 147.025 110.027,144.537 111.572,141.648 110.396 C 138.604 109.158,138.313 111.892,141.145 115.121 C 144.408 118.841,143.862 121.966,139.969 121.848 C 139.068 121.820,137.806 121.782,137.165 121.763 C 134.843 121.694,135.234 122.685,139.046 126.534 C 142.251 129.771,142.778 130.756,142.055 132.153 C 141.747 132.749,141.146 132.924,139.648 132.851 C 139.228 132.831,138.882 132.606,138.158 131.882 C 136.422 130.146,135.094 129.818,134.695 131.026 C 134.115 132.786,136.542 136.171,139.753 138.078 C 144.352 140.810,142.274 144.704,137.125 143.001 C 135.476 142.456,135.269 142.502,135.434 143.381 C 135.749 145.064,137.733 147.046,140.366 148.310 C 145.353 150.704,145.065 155.485,140.038 153.749 C 137.567 152.896,136.891 152.969,136.891 154.091 C 136.891 155.271,139.158 157.064,142.082 158.198 C 148.296 160.608,149.967 163.593,145.326 163.996 C 141.306 164.345,142.171 166.192,147.310 168.234 C 148.885 168.859,150.191 169.512,150.868 170.013 C 151.148 170.219,151.781 170.604,152.275 170.868 C 155.816 172.757,154.094 174.684,150.301 173.076 C 148.294 172.226,147.232 172.697,147.989 174.103 C 148.429 174.919,149.482 175.571,151.631 176.359 C 159.923 179.398,163.029 181.471,161.438 182.905 C 161.115 183.195,160.837 183.223,158.655 183.184 C 155.377 183.126,154.715 183.419,155.891 184.409 C 157.164 185.480,160.167 186.593,162.312 186.788 C 163.990 186.942,165.971 187.446,167.689 188.156 C 171.636 189.789,172.267 191.221,169.250 191.696 C 168.172 191.865,167.726 192.191,167.726 192.806 C 167.726 193.927,169.529 194.283,172.412 193.731 C 174.992 193.238,175.842 193.387,177.722 194.664 C 179.196 195.665,179.337 196.064,178.477 196.803 C 176.413 198.578,176.464 198.515,176.748 198.937 C 177.210 199.623,178.542 199.451,181.618 198.309 C 187.630 196.077,190.223 196.624,187.716 199.597 C 186.602 200.918,186.367 202.288,187.254 202.286 C 188.142 202.284,191.455 200.857,193.898 199.423 C 195.819 198.296,196.333 198.520,196.152 200.404 C 196.073 201.219,195.786 201.718,194.395 203.455 C 193.600 204.448,193.607 205.393,194.409 205.471 C 195.744 205.600,198.936 203.610,201.733 200.903 C 204.718 198.014,205.436 197.683,206.441 198.733 L 206.932 199.245 206.621 200.046 C 205.737 202.323,205.879 202.795,207.448 202.795 C 209.090 202.795,210.055 201.925,211.229 199.383 C 213.261 194.984,216.663 194.792,217.017 199.055 C 217.326 202.771,218.637 201.962,221.614 196.220 C 223.684 192.228,224.500 191.415,225.052 192.794 C 225.204 193.174,225.328 193.583,225.328 193.704 C 225.328 196.584,228.431 198.178,228.789 195.482 C 229.104 193.111,232.790 185.980,234.530 184.376 C 235.818 183.188,236.269 183.241,236.784 184.639 C 237.824 187.459,239.908 185.331,241.483 179.839 C 242.152 177.510,242.241 177.266,242.986 175.721 C 243.377 174.910,243.537 174.333,243.547 173.694 C 243.571 172.115,244.681 171.697,245.750 172.865 C 247.747 175.045,248.653 172.454,247.965 166.532 C 247.348 161.230,249.367 158.807,250.814 163.111 C 251.562 165.335,252.616 166.244,252.837 164.858 C 253.206 162.555,252.021 156.651,250.092 151.178 C 247.551 143.967,247.736 143.037,251.067 146.281 C 254.147 149.282,254.359 148.656,251.982 143.583 C 250.670 140.785,250.068 139.853,248.341 137.948 C 246.436 135.845,246.457 134.180,248.389 134.180 C 249.285 134.180,249.328 133.973,248.695 132.686 C 247.971 131.215,245.361 128.559,243.880 127.788 C 242.113 126.867,241.839 126.454,241.886 124.771 C 241.948 122.499,239.844 119.950,237.496 119.453 C 236.046 119.146,234.254 117.734,233.903 116.621 C 233.500 115.348,227.850 112.048,224.481 111.118 C 221.815 110.383,213.424 111.365,213.668 112.384 C 213.917 113.423,218.527 117.078,221.402 118.516 C 223.881 119.755,225.110 120.758,226.350 122.555 C 226.807 123.218,227.534 124.215,227.964 124.770 C 229.285 126.473,230.241 128.717,230.241 130.114 C 230.241 131.067,230.681 132.327,231.402 133.443 C 233.078 136.036,233.360 142.975,231.996 148.073 C 231.185 151.108,229.019 156.281,228.314 156.865 C 228.170 156.985,227.894 157.505,227.701 158.021 C 227.235 159.265,227.016 159.554,225.932 160.356 C 225.428 160.729,224.076 161.797,222.927 162.730 C 214.036 169.954,211.289 171.122,203.728 170.896 C 199.381 170.766,196.751 170.293,191.105 168.623 C 187.511 167.560,186.861 167.255,186.256 166.348 C 185.891 165.803,185.123 165.183,183.334 163.994 C 179.584 161.501,179.460 161.351,174.682 153.588 L 172.603 150.210 173.214 149.079 C 173.986 147.650,174.006 146.965,173.309 145.833 C 171.758 143.311,171.764 137.134,173.320 134.140 C 173.695 133.418,174.225 132.222,174.498 131.481 C 174.771 130.741,175.191 129.747,175.431 129.274 C 175.693 128.757,175.933 127.893,176.032 127.109 C 176.157 126.127,176.404 125.365,177.035 124.021 C 177.495 123.039,178.020 121.647,178.202 120.927 C 178.615 119.287,179.000 118.644,181.002 116.254 C 181.884 115.201,183.180 113.485,183.880 112.442 C 186.527 108.502,195.285 99.520,199.111 96.822 C 203.392 93.802,210.935 90.047,214.621 89.100 C 218.854 88.013,233.256 87.479,234.749 88.354 C 235.148 88.588,236.210 88.975,237.109 89.214 C 239.313 89.801,242.052 90.921,244.720 92.328 C 245.935 92.968,247.425 93.690,248.030 93.933 C 248.794 94.238,249.547 94.740,250.487 95.572 C 252.415 97.278,253.116 97.655,254.397 97.676 C 255.375 97.691,255.544 97.758,257.030 98.717 C 257.904 99.281,259.191 100.063,259.890 100.454 C 261.259 101.221,261.906 101.695,263.617 103.189 C 264.223 103.717,265.024 104.339,265.398 104.571 C 268.614 106.569,274.264 112.613,275.377 115.248 C 275.525 115.597,275.768 116.169,275.917 116.518 C 276.067 116.868,276.568 117.675,277.031 118.312 C 277.495 118.949,278.062 119.826,278.293 120.260 C 278.524 120.695,279.167 121.530,279.722 122.117 L 280.732 123.184 280.701 124.320 C 280.659 125.900,280.964 126.350,282.815 127.437 C 284.132 128.210,284.472 129.260,285.218 134.852 C 285.681 138.323,286.215 141.328,286.429 141.675 C 286.499 141.789,286.605 143.332,286.664 145.104 C 286.766 148.144,286.798 148.382,287.232 149.293 C 287.527 149.912,287.877 151.248,288.210 153.018 L 288.728 155.778 288.282 158.152 C 287.746 161.004,287.426 163.443,287.169 166.624 C 286.954 169.286,286.851 169.786,286.125 171.696 C 285.733 172.725,285.558 173.589,285.378 175.389 C 285.099 178.169,284.598 180.412,284.046 181.359 C 283.827 181.734,282.696 183.833,281.532 186.023 C 280.369 188.213,279.080 190.576,278.667 191.275 C 278.254 191.974,277.863 192.684,277.799 192.853 C 277.589 193.401,275.344 196.601,274.462 197.610 C 273.989 198.150,273.422 198.946,273.202 199.380 C 272.184 201.386,268.356 206.653,265.457 210.038 C 263.175 212.703,258.116 216.998,254.767 219.116 C 252.431 220.593,237.877 228.391,236.341 228.989 C 235.921 229.152,235.349 229.457,235.070 229.666 C 234.790 229.875,234.104 230.215,233.545 230.422 C 232.986 230.629,231.118 231.445,229.394 232.237 C 225.070 234.222,224.944 234.275,223.095 234.912 C 220.323 235.867,217.629 236.281,209.826 236.951 C 203.503 237.495,188.331 236.612,181.533 235.304 C 180.601 235.125,178.810 234.868,177.552 234.733 C 176.294 234.597,174.693 234.331,173.994 234.140 C 173.295 233.950,172.075 233.639,171.283 233.450 C 169.365 232.991,168.727 232.731,167.525 231.914 C 166.183 231.003,165.446 230.692,162.773 229.907 C 159.451 228.933,157.096 228.083,155.949 227.447 C 155.390 227.136,153.645 226.307,152.073 225.603 C 149.051 224.251,144.018 221.346,141.498 219.500 C 140.688 218.906,139.735 218.258,139.379 218.059 C 138.737 217.700,136.434 215.867,131.893 212.101 C 129.331 209.976,118.114 199.020,116.047 196.624 C 114.421 194.738,113.577 193.346,113.333 192.147 C 112.971 190.363,112.462 188.824,111.644 187.031 C 111.195 186.048,110.702 184.760,110.549 184.169 C 110.396 183.577,110.018 182.476,109.709 181.720 C 109.400 180.965,109.093 180.042,109.027 179.670 C 108.961 179.297,108.568 178.212,108.153 177.259 C 107.115 174.874,106.743 173.070,106.738 170.413 C 106.734 167.814,106.507 167.002,105.263 165.122 C 104.176 163.479,104.116 163.196,103.772 158.069 C 103.626 155.879,103.322 152.562,103.099 150.699 C 102.237 143.522,101.527 130.122,101.702 124.354 C 101.827 120.246,102.386 116.405,103.169 114.274 C 103.340 113.808,103.559 113.122,103.656 112.749 C 103.753 112.376,104.142 111.177,104.520 110.084 C 104.899 108.991,105.438 106.965,105.717 105.581 C 106.354 102.425,106.563 101.822,108.309 98.131 C 109.734 95.116,110.367 93.554,110.863 91.825 C 111.205 90.635,113.337 87.522,115.214 85.472 C 117.149 83.361,118.799 81.374,119.345 80.500 C 121.200 77.528,123.754 74.764,135.261 63.271 C 147.918 50.628,148.751 49.864,151.818 48.093 C 152.973 47.426,155.176 46.062,156.713 45.062 C 164.285 40.138,170.851 37.164,175.969 36.341 C 177.587 36.080,179.343 35.543,183.990 33.887 C 191.748 31.123,199.006 30.312,216.264 30.282 L 223.719 30.269 228.378 31.074 C 230.940 31.517,233.799 32.060,234.731 32.281 C 235.663 32.502,237.721 32.879,239.305 33.121 C 245.150 34.010,247.479 34.544,250.069 35.589 C 250.993 35.961,252.175 36.344,252.696 36.441 C 253.217 36.537,253.993 36.802,254.420 37.029 C 254.847 37.256,255.363 37.442,255.567 37.442 C 256.058 37.442,257.744 38.002,259.691 38.812 C 260.560 39.173,261.742 39.617,262.317 39.797 C 262.892 39.978,263.827 40.360,264.393 40.646 C 265.638 41.275,271.825 43.368,272.445 43.370 C 272.689 43.371,273.316 43.600,273.840 43.880 C 274.364 44.159,276.490 45.143,278.565 46.065 C 280.640 46.987,283.062 48.081,283.947 48.496 C 286.419 49.653,291.896 53.092,294.536 55.144 C 295.841 56.158,297.703 57.602,298.674 58.354 C 299.646 59.105,301.399 60.637,302.571 61.757 C 304.643 63.739,307.026 65.799,308.121 66.555 C 308.418 66.761,308.990 67.478,309.392 68.150 C 309.842 68.901,310.344 69.502,310.697 69.713 C 311.475 70.176,312.073 70.791,312.576 71.644 C 312.807 72.036,313.798 73.132,314.778 74.080 C 318.104 77.295,320.456 79.759,321.135 80.742 C 321.508 81.280,322.136 82.052,322.530 82.458 C 323.471 83.425,324.509 84.968,325.103 86.280 C 325.365 86.861,326.304 88.417,327.188 89.739 C 328.073 91.061,329.119 92.776,329.512 93.551 C 329.905 94.326,330.521 95.337,330.881 95.797 C 331.241 96.258,332.391 98.316,333.437 100.371 C 334.483 102.427,335.946 105.214,336.689 106.565 C 337.432 107.916,338.586 110.013,339.253 111.225 C 341.120 114.613,341.634 115.965,342.563 119.935 C 343.024 121.902,343.586 124.101,343.813 124.822 C 344.268 126.264,344.770 128.494,345.192 130.945 C 345.467 132.542,345.869 133.588,346.366 134.000 C 346.512 134.122,346.739 134.574,346.870 135.005 C 347.001 135.437,347.353 136.309,347.653 136.943 C 348.145 137.983,348.221 138.362,348.432 140.839 C 348.727 144.306,348.923 145.680,349.438 147.903 C 350.109 150.801,350.527 163.608,350.021 165.797 C 349.711 167.141,349.524 169.555,349.261 175.604 C 349.001 181.574,348.834 183.974,348.502 186.531 C 348.412 187.230,348.335 188.335,348.331 188.988 C 348.323 190.528,348.088 191.340,347.545 191.695 C 346.844 192.155,346.347 193.529,345.795 196.529 C 344.850 201.673,341.725 212.859,340.448 215.670 C 339.560 217.625,339.334 218.292,338.670 220.925 C 338.125 223.081,336.443 226.584,334.522 229.564 C 334.071 230.263,333.434 231.406,333.106 232.105 C 332.778 232.804,331.966 234.138,331.302 235.070 C 329.904 237.030,328.052 239.675,325.309 243.626 C 322.092 248.260,321.112 249.513,318.354 252.520 C 316.901 254.104,315.029 256.153,314.194 257.073 C 313.360 257.993,312.255 259.056,311.739 259.435 C 311.223 259.814,308.933 261.961,306.650 264.207 C 304.367 266.453,302.118 268.591,301.652 268.960 C 301.186 269.328,299.814 270.571,298.602 271.721 C 296.075 274.120,295.826 274.277,294.245 274.476 C 293.227 274.604,292.638 274.855,289.573 276.470 C 283.082 279.891,276.029 283.414,275.284 283.610 C 274.877 283.716,274.049 284.099,273.443 284.460 C 272.838 284.821,272.190 285.165,272.003 285.226 C 271.817 285.287,270.559 285.862,269.208 286.505 C 267.857 287.147,266.335 287.751,265.827 287.846 C 265.318 287.940,263.450 288.657,261.676 289.438 C 258.344 290.904,257.151 291.330,254.977 291.829 C 254.278 291.989,252.763 292.454,251.610 292.862 C 248.942 293.807,248.233 293.828,246.529 293.011 C 245.034 292.295,245.248 292.282,244.782 293.113 C 244.141 294.253,243.285 294.495,239.136 294.707 C 237.925 294.769,236.285 294.959,235.493 295.130 C 234.701 295.301,232.719 295.605,231.089 295.807 C 229.458 296.008,227.819 296.237,227.446 296.316 C 226.785 296.455,225.546 296.556,218.043 297.085 C 216.040 297.226,212.990 297.494,211.266 297.680 C 205.508 298.304,205.734 298.262,205.074 298.841 C 204.302 299.519,204.229 299.506,203.836 298.617 C 203.313 297.434,202.484 297.225,201.473 298.020 C 200.944 298.436,200.530 298.429,199.576 297.988 C 198.662 297.564,197.370 297.528,196.502 297.902 C 195.907 298.159,195.863 298.153,195.316 297.757 C 193.867 296.708,194.342 296.777,185.430 296.318 C 179.212 295.997,173.202 295.403,170.775 294.869 C 170.169 294.736,169.178 294.517,168.573 294.383 C 167.967 294.248,166.518 294.050,165.354 293.942 C 161.926 293.624,158.037 292.580,155.475 291.288 C 154.307 290.700,152.184 289.939,150.633 289.553 C 149.834 289.354,148.328 288.736,146.893 288.016 C 144.409 286.772,140.291 284.906,138.885 284.387 C 135.608 283.178,129.494 279.475,123.528 275.086 C 121.256 273.415,118.092 271.167,116.497 270.090 C 111.857 266.960,110.243 265.811,109.688 265.245 C 109.402 264.953,108.258 264.170,107.145 263.504 C 106.032 262.839,104.512 261.856,103.768 261.319 C 103.023 260.783,101.919 260.015,101.313 259.613 C 100.613 259.149,99.038 257.652,96.993 255.508 C 95.222 253.652,89.038 247.438,83.249 241.699 C 72.342 230.884,71.285 229.758,70.213 227.802 C 69.553 226.597,66.604 222.400,65.260 220.754 C 64.842 220.241,64.403 219.593,64.285 219.314 C 64.166 219.034,63.491 218.053,62.784 217.134 C 62.078 216.214,61.499 215.365,61.499 215.246 C 61.499 215.128,61.141 214.546,60.702 213.953 C 59.759 212.678,56.968 208.285,55.282 205.421 C 54.018 203.275,52.597 200.287,52.098 198.729 C 51.933 198.217,51.349 196.819,50.800 195.624 C 50.250 194.428,49.414 192.522,48.942 191.388 C 48.470 190.254,47.816 188.717,47.488 187.971 C 47.160 187.226,46.224 184.977,45.407 182.973 C 44.591 180.970,43.198 177.692,42.311 175.688 C 41.424 173.685,40.470 171.321,40.192 170.436 C 39.913 169.551,39.374 168.062,38.994 167.126 C 38.615 166.191,38.253 165.086,38.190 164.670 C 38.127 164.254,37.437 161.831,36.658 159.285 C 33.823 150.029,32.346 143.305,31.255 134.689 C 30.862 131.587,30.304 128.475,29.555 125.201 C 29.401 124.529,29.321 123.475,29.349 122.495 C 29.389 121.074,29.360 120.884,29.094 120.830 C 28.115 120.634,25.955 124.410,25.687 126.786 C 25.545 128.045,25.403 128.314,24.326 129.359 C 23.024 130.623,20.839 134.702,20.839 135.868 C 20.839 136.066,20.538 137.159,20.170 138.296 C 19.803 139.434,19.385 140.878,19.241 141.506 C 19.098 142.134,18.796 143.087,18.570 143.624 C 18.345 144.161,18.106 144.981,18.039 145.447 C 17.739 147.554,16.932 148.461,14.950 148.918 C 13.869 149.168,13.841 149.201,11.754 152.732 C 9.644 156.303,9.644 156.298,11.944 156.910 C 12.876 157.158,13.954 157.457,14.339 157.575 C 14.908 157.749,15.361 157.747,16.743 157.564 C 18.984 157.268,19.699 157.676,19.699 159.255 C 19.699 161.566,15.188 165.180,12.297 165.185 C 10.700 165.188,9.384 166.151,8.593 167.895 C 8.318 168.501,7.787 169.513,7.413 170.144 C 6.308 172.009,6.534 173.156,8.100 173.625 C 9.906 174.167,12.917 173.994,13.648 173.307 C 14.578 172.434,15.887 172.381,16.492 173.191 C 17.871 175.038,15.653 180.849,13.186 181.853 C 10.808 182.821,9.998 183.482,9.168 185.128 C 8.010 187.427,8.020 190.731,9.190 192.467 C 10.296 194.108,13.473 194.309,14.769 192.819 C 16.619 190.693,18.335 191.279,20.219 194.680 C 21.002 196.091,21.024 195.918,19.807 197.921 C 19.240 198.854,18.634 199.948,18.461 200.351 C 18.091 201.215,16.397 202.679,14.536 203.743 C 12.719 204.782,12.402 205.634,12.964 207.963 C 13.099 208.522,13.211 209.230,13.212 209.537 C 13.214 209.843,13.446 210.538,13.728 211.080 C 14.017 211.636,14.357 212.687,14.507 213.488 C 14.949 215.857,15.338 215.964,17.811 214.396 C 21.233 212.227,24.650 212.328,25.821 214.633 C 28.620 220.139,28.047 225.418,24.082 230.652 C 21.732 233.753,21.647 238.589,23.888 241.677 C 24.159 242.050,24.801 242.977,25.316 243.738 C 26.868 246.031,28.124 246.060,30.519 243.858 C 31.076 243.346,31.863 242.785,32.270 242.611 C 33.041 242.281,33.759 241.325,33.957 240.364 C 34.010 240.108,34.093 239.709,34.141 239.478 C 34.808 236.257,40.060 236.710,41.798 240.138 C 42.891 242.295,41.587 247.927,39.185 251.427 C 37.165 254.371,37.171 254.197,38.999 256.925 C 39.499 257.670,40.630 259.607,41.512 261.228 C 43.487 264.856,43.976 265.446,44.697 265.073 C 46.054 264.371,50.466 259.364,50.913 258.019 C 52.013 254.708,55.038 253.466,56.886 255.566 C 59.584 258.630,60.108 263.960,58.197 268.885 C 56.166 274.116,56.282 275.088,59.498 279.843 C 63.045 285.087,64.646 285.179,67.840 280.322 C 70.449 276.356,70.742 275.585,70.143 274.267 C 68.184 269.948,75.672 270.550,77.808 274.884 C 79.063 277.430,78.976 280.804,77.537 285.338 L 76.979 287.097 77.429 288.106 C 77.878 289.114,78.325 290.415,78.509 291.254 C 78.880 292.942,84.445 296.800,85.960 296.420 C 87.520 296.029,89.302 292.757,89.442 290.026 C 89.575 287.450,89.926 287.084,92.147 287.210 C 98.115 287.548,99.569 290.652,98.837 301.496 C 98.694 303.618,98.840 303.870,100.758 304.785 C 101.576 305.175,102.788 305.832,103.452 306.245 C 104.116 306.659,105.128 307.181,105.702 307.406 C 106.275 307.631,107.198 308.117,107.752 308.487 C 108.759 309.160,109.825 309.478,110.430 309.286 C 110.765 309.179,110.966 307.751,110.969 305.458 C 110.971 303.647,112.080 301.000,112.927 300.787 C 113.761 300.578,117.780 302.362,118.902 303.440 C 120.448 304.926,120.905 306.745,120.735 310.744 C 120.552 315.079,120.722 315.444,123.607 316.906 C 124.717 317.468,126.449 318.407,127.457 318.992 C 131.399 321.282,131.728 321.173,131.971 317.499 C 132.217 313.797,133.013 312.664,135.366 312.664 C 139.476 312.664,143.336 317.718,144.007 323.978 C 144.392 327.569,144.815 328.283,146.899 328.856 C 147.984 329.154,148.286 329.328,149.089 330.115 C 149.602 330.617,150.238 331.109,150.504 331.208 C 150.769 331.308,151.691 331.846,152.552 332.404 C 155.173 334.101,155.256 334.009,155.440 329.183 C 155.571 325.763,155.704 324.997,156.469 323.253 C 156.775 322.554,157.081 321.753,157.147 321.474 C 157.396 320.428,158.338 320.245,160.189 320.882 C 163.633 322.067,165.262 324.551,166.280 330.171 C 167.063 334.489,167.587 335.334,170.136 336.389 C 171.000 336.746,173.143 337.756,174.898 338.633 L 178.089 340.227 178.489 339.851 C 179.837 338.584,180.112 333.462,179.070 329.024 L 178.701 327.452 179.524 326.610 C 181.389 324.700,182.825 324.551,184.927 326.048 C 185.490 326.448,186.224 326.890,186.560 327.031 C 187.522 327.432,189.885 331.534,190.777 334.350 C 191.759 337.448,193.248 339.328,195.181 339.910 C 195.602 340.036,196.275 340.378,196.677 340.670 C 197.991 341.621,202.899 342.643,203.623 342.116 C 204.142 341.739,202.957 333.297,202.117 331.383 C 200.468 327.626,203.317 323.149,206.068 325.175 C 206.365 325.393,207.110 325.848,207.725 326.185 C 209.616 327.223,213.609 331.899,215.419 335.197 C 217.801 339.535,220.193 341.211,224.002 341.211 C 225.597 341.211,225.877 341.298,226.878 342.100 C 229.880 344.506,229.492 336.808,226.380 332.251 C 224.420 329.380,223.969 327.888,224.618 326.421 C 225.673 324.037,230.237 323.258,231.546 325.237 C 231.714 325.491,232.282 326.121,232.808 326.636 C 233.450 327.264,233.991 328.026,234.450 328.947 C 235.234 330.521,235.737 331.005,237.423 331.806 C 238.868 332.492,239.380 333.012,239.896 334.319 C 240.412 335.624,241.047 336.232,242.240 336.562 C 242.769 336.709,244.231 337.131,245.489 337.501 C 254.571 340.169,255.025 340.048,253.229 335.424 C 252.818 334.367,252.271 332.855,252.012 332.063 C 251.183 329.525,250.524 328.579,248.687 327.291 C 245.673 325.176,247.229 323.451,252.647 322.904 C 255.228 322.644,255.981 322.826,257.654 324.117 C 258.371 324.670,260.014 325.895,261.304 326.839 C 262.594 327.783,264.307 329.118,265.109 329.806 C 267.726 332.048,268.948 332.386,273.299 332.076 C 279.147 331.660,279.387 331.349,276.647 327.738 C 274.050 324.314,273.985 324.029,275.409 322.293 C 275.932 321.656,276.514 320.832,276.703 320.463 C 279.118 315.735,287.830 316.073,295.885 321.207 C 297.507 322.241,297.563 322.244,299.677 321.392 C 300.598 321.020,301.915 320.598,302.603 320.454 C 304.784 319.995,307.836 318.268,307.836 317.492 C 307.836 316.932,305.689 315.384,303.883 314.641 C 301.807 313.787,299.246 310.650,298.762 308.368 C 297.939 304.487,298.509 303.223,302.075 301.014 C 303.147 300.350,304.862 299.198,305.887 298.454 C 306.912 297.710,308.590 296.494,309.615 295.753 C 312.574 293.612,316.645 289.968,316.645 289.460 C 316.645 288.950,323.475 282.852,327.150 280.080 C 330.374 277.648,337.110 270.719,339.140 267.745 C 340.466 265.803,340.846 265.654,344.515 265.647 C 347.715 265.640,350.036 265.421,350.562 265.076 C 350.784 264.930,351.563 264.697,352.293 264.557 C 354.455 264.144,356.542 262.526,358.282 259.913 C 359.446 258.167,359.326 258.002,356.297 257.180 C 350.714 255.665,350.165 253.623,354.245 249.544 C 357.270 246.520,360.194 245.168,363.744 245.150 C 366.783 245.135,368.654 244.622,369.647 243.531 C 370.049 243.090,370.544 242.732,370.832 242.674 C 372.047 242.431,376.112 238.129,376.112 237.086 C 376.112 236.568,375.756 236.425,374.079 236.268 C 370.243 235.909,365.967 234.441,364.098 232.841 C 363.194 232.067,363.199 231.644,364.123 230.641 C 364.518 230.213,365.185 229.166,365.605 228.315 C 366.812 225.875,367.446 225.676,374.028 225.670 C 379.671 225.666,379.934 225.574,381.370 223.115 C 382.249 221.611,383.750 219.621,385.268 217.950 C 388.086 214.848,387.145 213.837,382.186 214.637 C 375.884 215.654,370.996 212.224,373.010 208.197 C 374.764 204.691,377.332 203.170,383.411 202.034 C 388.308 201.119,388.417 201.040,390.658 196.763 C 392.809 192.658,393.012 191.978,392.323 191.177 C 391.725 190.482,390.413 190.509,388.964 191.244 C 387.532 191.971,385.008 192.478,382.634 192.516 C 380.172 192.555,380.015 192.499,379.287 191.318 C 378.954 190.779,378.104 189.615,377.397 188.731 C 375.977 186.954,375.974 186.941,376.290 184.752 C 376.781 181.352,379.334 179.462,386.928 176.873 C 389.889 175.863,392.027 174.369,392.040 173.300 C 392.042 173.169,392.230 172.885,392.459 172.668 C 392.967 172.186,394.655 168.783,394.923 167.701 C 395.306 166.156,394.730 165.863,393.014 166.729 C 385.087 170.730,378.564 169.222,377.628 163.170 C 377.010 159.180,378.655 157.040,383.566 155.447 C 384.993 154.984,389.388 153.308,390.141 152.940 C 391.420 152.315,395.319 147.175,396.494 144.564 C 397.260 142.861,397.266 142.636,396.562 141.869 L 396.005 141.261 393.578 142.132 C 392.243 142.611,390.510 143.152,389.727 143.334 C 388.944 143.517,387.828 143.868,387.248 144.114 C 380.880 146.815,376.059 142.408,378.881 136.466 C 379.663 134.818,380.204 134.340,384.482 131.511 C 390.210 127.723,391.422 126.293,392.402 122.168 C 393.344 118.204,392.213 116.685,389.539 118.322 C 388.716 118.825,386.115 119.883,381.703 121.508 C 376.816 123.309,372.510 118.644,374.722 113.947 C 375.278 112.767,375.374 112.662,378.533 109.755 C 380.094 108.317,382.056 101.387,381.046 100.873 C 380.585 100.638,379.755 100.845,379.606 101.233 C 379.364 101.864,376.009 103.007,374.398 103.007 C 370.194 103.007,366.799 101.539,365.111 98.991 C 363.325 96.294,367.420 89.128,372.210 86.570 C 374.840 85.166,375.082 84.577,374.025 82.169 C 372.349 78.353,371.208 77.483,369.926 79.048 C 367.908 81.510,359.401 84.100,356.233 83.216 C 355.050 82.886,352.030 80.975,350.953 79.875 C 350.394 79.304,349.746 78.738,349.513 78.618 C 347.777 77.720,346.223 75.972,343.788 72.172 C 341.887 69.206,340.481 67.362,338.625 65.400 C 337.858 64.589,336.968 63.474,336.647 62.924 C 334.406 59.076,322.697 47.225,312.425 38.408 C 311.374 37.506,310.619 36.929,305.754 33.304 C 301.188 29.902,297.651 27.886,293.096 26.093 C 292.118 25.707,290.021 24.793,288.437 24.061 C 286.853 23.328,285.061 22.566,284.456 22.367 C 283.850 22.168,282.935 21.751,282.423 21.441 C 281.100 20.641,278.389 19.304,276.226 18.384 C 275.208 17.952,274.108 17.416,273.782 17.194 C 273.456 16.971,272.836 16.711,272.405 16.616 C 271.139 16.335,266.467 14.656,264.676 13.839 C 263.768 13.424,262.338 12.878,261.499 12.625 C 260.661 12.372,259.288 11.875,258.450 11.520 C 256.455 10.675,254.702 10.177,250.366 9.225 C 248.403 8.794,246.255 8.260,245.592 8.038 C 244.195 7.570,242.384 7.349,238.712 7.199 C 234.895 7.042,232.885 6.838,231.258 6.442 C 230.161 6.175,228.868 6.053,225.837 5.934 C 222.021 5.784,221.767 5.752,219.746 5.176 C 217.904 4.650,216.226 4.415,215.992 4.649 " stroke="none" fill="#fc0404" fill-rule="evenodd"></path></g></svg>